<svg width="103" height="6" viewBox="0 0 103 6" fill="none" xmlns="http://www.w3.org/2000/svg">
<path d="M6.16667 3C6.16667 1.52724 4.97276 0.333335 3.5 0.333335C2.02724 0.333335 0.833336 1.52724 0.833336 3C0.833336 4.47276 2.02724 5.66667 3.5 5.66667C4.97276 5.66667 6.16667 4.47276 6.16667 3ZM39.5 3L39.5 2.5L3.5 2.5L3.5 3L3.5 3.5L39.5 3.5L39.5 3Z" fill="black"/>
<path d="M102.167 3C102.167 1.52724 100.973 0.333333 99.5 0.333333C98.0272 0.333333 96.8333 1.52724 96.8333 3C96.8333 4.47276 98.0272 5.66667 99.5 5.66667C100.973 5.66667 102.167 4.47276 102.167 3ZM99.5 3L99.5 2.5L63.5 2.5L63.5 3L63.5 3.5L99.5 3.5L99.5 3Z" fill="black"/>
</svg>
