<svg width="66" height="67" viewBox="0 0 66 67" fill="none" xmlns="http://www.w3.org/2000/svg">
<rect y="0.0771484" width="65.2051" height="66.5924" rx="13" fill="#87C0CD"/>
<path d="M18.791 24.3218C18.3795 24.3218 18.0429 23.9852 18.0354 23.5738V18.8684C18.0354 18.4494 18.3721 18.1128 18.791 18.1128H23.4964C23.9078 18.1128 24.2445 18.4494 24.2445 18.8684V20.5066H42.3479V18.8684C42.3479 18.4569 42.6845 18.1203 43.096 18.1128H47.8014C48.2128 18.1128 48.5495 18.4494 48.5569 18.8684V23.5738C48.5569 23.9852 48.2203 24.3218 47.8014 24.3218H46.1631V42.4253H47.8014C48.2128 42.4253 48.5495 42.7619 48.5569 43.1734V47.8788C48.5569 48.2902 48.2203 48.6268 47.8014 48.6343H43.096C42.6845 48.6343 42.3479 48.2977 42.3479 47.8788V46.2405H24.2445V47.8788C24.2445 48.2902 23.9078 48.6268 23.4964 48.6343H18.791C18.3795 48.6343 18.0429 48.2977 18.0354 47.8788V43.1734C18.0354 42.7619 18.3721 42.4253 18.791 42.4253H20.4293V24.3218H18.791ZM47.0608 22.8257V19.6089H43.8441V22.8257H47.0608ZM43.8441 47.1382H47.0608V43.9214H43.8441V47.1382ZM24.2445 43.1734V44.7443H42.3479V43.1734C42.3479 42.7619 42.6845 42.4253 43.096 42.4253H44.6669V24.3218H43.096C42.6845 24.3218 42.3479 23.9852 42.3479 23.5738V22.0028H24.2445V23.5738C24.2445 23.9852 23.9078 24.3218 23.4964 24.3218H21.9254V42.4253H23.4964C23.9078 42.4253 24.2445 42.7619 24.2445 43.1734ZM19.5316 43.9214V47.1382H22.7483V43.9214H19.5316ZM22.7483 22.8257V19.6089H19.5316V22.8257H22.7483Z" fill="white"/>
</svg>
